G04 EAGLE Gerber RS-274X export*
G75*
%MOMM*%
%FSLAX34Y34*%
%LPD*%
%INSoldermask Top*%
%IPPOS*%
%AMOC8*
5,1,8,0,0,1.08239X$1,22.5*%
G01*
%ADD10P,1.803519X8X202.500000*%
%ADD11P,1.803519X8X112.500000*%
%ADD12P,1.951982X8X292.500000*%
%ADD13C,1.803400*%
%ADD14P,1.803519X8X22.500000*%
%ADD15P,1.951982X8X202.500000*%
%ADD16C,3.083200*%
%ADD17R,2.032000X2.032000*%
%ADD18C,2.032000*%
%ADD19R,2.453200X0.903200*%
%ADD20R,2.453200X0.963200*%
%ADD21R,2.453200X1.003200*%
%ADD22C,2.363200*%
%ADD23C,2.743200*%
%ADD24C,2.082800*%
%ADD25C,6.045200*%
%ADD26C,1.666238*%
%ADD27C,2.032000*%
%ADD28P,2.199416X8X112.500000*%
%ADD29R,1.403200X1.403200*%
%ADD30P,1.803519X8X292.500000*%
%ADD31R,1.203200X1.303200*%
%ADD32P,2.034460X8X202.500000*%
%ADD33P,2.034460X8X22.500000*%
%ADD34C,1.879600*%
%ADD35R,1.371600X1.803400*%
%ADD36R,1.803400X1.371600*%
%ADD37C,1.643200*%
%ADD38C,3.443200*%
%ADD39P,1.973413X8X22.500000*%
%ADD40R,2.082800X2.082800*%
%ADD41C,6.146800*%
%ADD42C,0.812800*%


D10*
X571500Y292100D03*
X520700Y292100D03*
D11*
X660400Y190500D03*
X660400Y241300D03*
X660400Y114300D03*
X660400Y165100D03*
D12*
X238125Y276225D03*
D13*
X238125Y301625D03*
D11*
X622300Y114300D03*
X622300Y165100D03*
D10*
X762000Y279400D03*
X711200Y279400D03*
D11*
X622300Y190500D03*
X622300Y241300D03*
D14*
X520700Y590550D03*
X571500Y590550D03*
D15*
X254000Y654050D03*
D13*
X279400Y654050D03*
D16*
X123300Y520700D03*
X65300Y520700D03*
X93300Y472700D03*
D17*
X25400Y609800D03*
D18*
X25400Y634800D03*
D17*
X457000Y711200D03*
D18*
X432000Y711200D03*
D17*
X545900Y711200D03*
D18*
X520900Y711200D03*
D17*
X748900Y711200D03*
D18*
X723900Y711200D03*
X698900Y711200D03*
D17*
X863200Y711200D03*
D18*
X838200Y711200D03*
X813200Y711200D03*
D17*
X634800Y711200D03*
D18*
X609800Y711200D03*
D19*
X74850Y398700D03*
X74850Y388700D03*
D20*
X74850Y378500D03*
X74850Y408900D03*
D21*
X74850Y366200D03*
X74850Y421200D03*
D22*
X69850Y436900D03*
X69850Y350500D03*
D23*
X31850Y436900D03*
X31850Y350500D03*
D24*
X165100Y355600D03*
X165100Y304800D03*
D25*
X945000Y715000D03*
X945000Y55000D03*
X55000Y715000D03*
X55000Y55000D03*
D26*
X317500Y360985D02*
X317500Y375615D01*
X342900Y375615D02*
X342900Y360985D01*
X368300Y360985D02*
X368300Y375615D01*
X393700Y375615D02*
X393700Y360985D01*
X419100Y360985D02*
X419100Y375615D01*
X444500Y375615D02*
X444500Y360985D01*
X469900Y360985D02*
X469900Y375615D01*
X495300Y375615D02*
X495300Y360985D01*
X520700Y360985D02*
X520700Y375615D01*
X546100Y375615D02*
X546100Y360985D01*
X571500Y360985D02*
X571500Y375615D01*
X596900Y375615D02*
X596900Y360985D01*
X622300Y360985D02*
X622300Y375615D01*
X647700Y375615D02*
X647700Y360985D01*
X673100Y360985D02*
X673100Y375615D01*
X698500Y375615D02*
X698500Y360985D01*
X723900Y360985D02*
X723900Y375615D01*
X749300Y375615D02*
X749300Y360985D01*
X774700Y360985D02*
X774700Y375615D01*
X800100Y375615D02*
X800100Y360985D01*
X800100Y513385D02*
X800100Y528015D01*
X774700Y528015D02*
X774700Y513385D01*
X749300Y513385D02*
X749300Y528015D01*
X723900Y528015D02*
X723900Y513385D01*
X698500Y513385D02*
X698500Y528015D01*
X673100Y528015D02*
X673100Y513385D01*
X647700Y513385D02*
X647700Y528015D01*
X622300Y528015D02*
X622300Y513385D01*
X596900Y513385D02*
X596900Y528015D01*
X571500Y528015D02*
X571500Y513385D01*
X546100Y513385D02*
X546100Y528015D01*
X520700Y528015D02*
X520700Y513385D01*
X495300Y513385D02*
X495300Y528015D01*
X469900Y528015D02*
X469900Y513385D01*
X444500Y513385D02*
X444500Y528015D01*
X419100Y528015D02*
X419100Y513385D01*
X393700Y513385D02*
X393700Y528015D01*
X368300Y528015D02*
X368300Y513385D01*
X342900Y513385D02*
X342900Y528015D01*
X317500Y528015D02*
X317500Y513385D01*
X139700Y729285D02*
X139700Y743915D01*
X165100Y743915D02*
X165100Y729285D01*
X190500Y729285D02*
X190500Y743915D01*
X215900Y743915D02*
X215900Y729285D01*
X241300Y729285D02*
X241300Y743915D01*
X266700Y743915D02*
X266700Y729285D01*
X292100Y729285D02*
X292100Y743915D01*
X317500Y743915D02*
X317500Y729285D01*
X342900Y729285D02*
X342900Y743915D01*
X368300Y743915D02*
X368300Y729285D01*
D27*
X317500Y339344D02*
X317500Y321056D01*
X342900Y321056D02*
X342900Y339344D01*
X368300Y339344D02*
X368300Y321056D01*
X393700Y321056D02*
X393700Y339344D01*
X419100Y339344D02*
X419100Y321056D01*
X444500Y321056D02*
X444500Y339344D01*
X469900Y339344D02*
X469900Y321056D01*
X495300Y321056D02*
X495300Y339344D01*
X520700Y339344D02*
X520700Y321056D01*
X546100Y321056D02*
X546100Y339344D01*
X571500Y339344D02*
X571500Y321056D01*
X596900Y321056D02*
X596900Y339344D01*
X622300Y339344D02*
X622300Y321056D01*
X647700Y321056D02*
X647700Y339344D01*
X673100Y339344D02*
X673100Y321056D01*
X698500Y321056D02*
X698500Y339344D01*
X723900Y339344D02*
X723900Y321056D01*
X749300Y321056D02*
X749300Y339344D01*
X774700Y339344D02*
X774700Y321056D01*
X800100Y321056D02*
X800100Y339344D01*
X863600Y663956D02*
X863600Y682244D01*
X838200Y682244D02*
X838200Y663956D01*
X812800Y663956D02*
X812800Y682244D01*
X520700Y644144D02*
X520700Y625856D01*
X546100Y625856D02*
X546100Y644144D01*
X698500Y644144D02*
X698500Y625856D01*
X723900Y625856D02*
X723900Y644144D01*
X609600Y644144D02*
X609600Y625856D01*
X635000Y625856D02*
X635000Y644144D01*
X933831Y660400D02*
X952119Y660400D01*
X952119Y635000D02*
X933831Y635000D01*
X933831Y609600D02*
X952119Y609600D01*
X952119Y584200D02*
X933831Y584200D01*
X933831Y558800D02*
X952119Y558800D01*
X952119Y533400D02*
X933831Y533400D01*
X317500Y549656D02*
X317500Y567944D01*
X342900Y567944D02*
X342900Y549656D01*
X368300Y549656D02*
X368300Y567944D01*
X393700Y567944D02*
X393700Y549656D01*
X419100Y549656D02*
X419100Y567944D01*
X444500Y567944D02*
X444500Y549656D01*
X469900Y549656D02*
X469900Y567944D01*
X495300Y567944D02*
X495300Y549656D01*
X520700Y549656D02*
X520700Y567944D01*
X546100Y567944D02*
X546100Y549656D01*
X571500Y549656D02*
X571500Y567944D01*
X596900Y567944D02*
X596900Y549656D01*
X622300Y549656D02*
X622300Y567944D01*
X647700Y567944D02*
X647700Y549656D01*
X673100Y549656D02*
X673100Y567944D01*
X698500Y567944D02*
X698500Y549656D01*
X723900Y549656D02*
X723900Y567944D01*
X749300Y567944D02*
X749300Y549656D01*
X774700Y549656D02*
X774700Y567944D01*
X800100Y567944D02*
X800100Y549656D01*
X854456Y273050D02*
X872744Y273050D01*
X872744Y247650D02*
X854456Y247650D01*
X457200Y663956D02*
X457200Y682244D01*
X431800Y682244D02*
X431800Y663956D01*
X546100Y663956D02*
X546100Y682244D01*
X520700Y682244D02*
X520700Y663956D01*
X635000Y663956D02*
X635000Y682244D01*
X609600Y682244D02*
X609600Y663956D01*
D28*
X241300Y431800D03*
X215900Y431800D03*
X241300Y457200D03*
X215900Y457200D03*
X241300Y482600D03*
X215900Y482600D03*
X241300Y508000D03*
X215900Y508000D03*
X241300Y533400D03*
X215900Y533400D03*
X241300Y558800D03*
X215900Y558800D03*
X241300Y584200D03*
X215900Y584200D03*
D27*
X749300Y663956D02*
X749300Y682244D01*
X723900Y682244D02*
X723900Y663956D01*
X698500Y663956D02*
X698500Y682244D01*
D24*
X266700Y508000D03*
X266700Y482600D03*
D29*
X101600Y167300D03*
X101600Y188300D03*
D30*
X177800Y190500D03*
X177800Y165100D03*
X254000Y190500D03*
X254000Y165100D03*
D10*
X393700Y190500D03*
X292100Y190500D03*
D14*
X215900Y704850D03*
X317500Y704850D03*
D31*
X112150Y406400D03*
X129150Y406400D03*
X112150Y381000D03*
X129150Y381000D03*
D10*
X393700Y215900D03*
X292100Y215900D03*
D32*
X215900Y368300D03*
X266700Y368300D03*
X241300Y342900D03*
D14*
X101600Y228600D03*
X203200Y228600D03*
D30*
X825500Y247650D03*
X825500Y146050D03*
D10*
X304800Y82550D03*
X203200Y82550D03*
D33*
X177800Y57150D03*
X127000Y57150D03*
X152400Y82550D03*
D34*
X234000Y38100D03*
X274000Y38100D03*
D27*
X339344Y73406D02*
X357632Y73406D01*
X357632Y28194D02*
X339344Y28194D01*
X404368Y73406D02*
X422656Y73406D01*
X422656Y28194D02*
X404368Y28194D01*
X567944Y73406D02*
X586232Y73406D01*
X586232Y28194D02*
X567944Y28194D01*
X632968Y73406D02*
X651256Y73406D01*
X651256Y28194D02*
X632968Y28194D01*
X471932Y73406D02*
X453644Y73406D01*
X453644Y28194D02*
X471932Y28194D01*
X518668Y73406D02*
X536956Y73406D01*
X536956Y28194D02*
X518668Y28194D01*
D35*
X855980Y304800D03*
X871220Y304800D03*
X855980Y215900D03*
X871220Y215900D03*
D36*
X812800Y115570D03*
X812800Y100330D03*
X838200Y115570D03*
X838200Y100330D03*
D37*
X20600Y210500D03*
X20600Y170500D03*
X55600Y190500D03*
D38*
X38100Y131000D03*
X38100Y250000D03*
D39*
X76200Y304800D03*
X101600Y304800D03*
X127000Y304800D03*
X25400Y304800D03*
D37*
X609600Y292100D03*
X635000Y292100D03*
X660400Y292100D03*
D26*
X691185Y241300D02*
X705815Y241300D01*
X705815Y215900D02*
X691185Y215900D01*
X691185Y190500D02*
X705815Y190500D01*
X705815Y165100D02*
X691185Y165100D01*
X691185Y139700D02*
X705815Y139700D01*
X705815Y114300D02*
X691185Y114300D01*
X691185Y88900D02*
X705815Y88900D01*
X705815Y63500D02*
X691185Y63500D01*
X767385Y63500D02*
X782015Y63500D01*
X782015Y88900D02*
X767385Y88900D01*
X767385Y114300D02*
X782015Y114300D01*
X782015Y139700D02*
X767385Y139700D01*
X767385Y165100D02*
X782015Y165100D01*
X782015Y190500D02*
X767385Y190500D01*
X767385Y215900D02*
X782015Y215900D01*
X782015Y241300D02*
X767385Y241300D01*
D40*
X925600Y309400D03*
D24*
X925600Y281700D03*
X925600Y254000D03*
X925600Y226300D03*
X925600Y198600D03*
X954000Y295500D03*
X954000Y267800D03*
X954000Y240200D03*
X954000Y212500D03*
D41*
X939800Y379000D03*
X939800Y129000D03*
D14*
X330200Y114300D03*
X431800Y114300D03*
D35*
X897255Y635000D03*
X912495Y635000D03*
X897255Y609600D03*
X912495Y609600D03*
D42*
X142875Y412750D03*
X142875Y400050D03*
X142875Y387350D03*
X142875Y374650D03*
X171450Y415925D03*
X206375Y717550D03*
X254000Y717550D03*
X257175Y622300D03*
X219075Y619125D03*
X190500Y520700D03*
X260350Y558800D03*
X298450Y558800D03*
X260350Y590550D03*
X260350Y577850D03*
X234950Y603250D03*
X323850Y619125D03*
X298450Y647700D03*
X304800Y717550D03*
X279400Y717550D03*
X336550Y714375D03*
X361950Y714375D03*
X349250Y660400D03*
X409575Y660400D03*
X415925Y698500D03*
X387350Y742950D03*
X441325Y730250D03*
X454025Y755650D03*
X476250Y660400D03*
X406400Y635000D03*
X504825Y650875D03*
X469900Y600075D03*
X400050Y600075D03*
X488950Y609600D03*
X365125Y587375D03*
X339725Y587375D03*
X387350Y587375D03*
X349250Y482600D03*
X349250Y454025D03*
X349250Y438150D03*
X349250Y425450D03*
X349250Y412750D03*
X349250Y400050D03*
X444500Y412750D03*
X444500Y400050D03*
X444500Y425450D03*
X444500Y438150D03*
X444500Y450850D03*
X444500Y463550D03*
X444500Y476250D03*
X444500Y488950D03*
X374650Y482600D03*
X396875Y498475D03*
X431800Y501650D03*
X457200Y508000D03*
X482600Y508000D03*
X469900Y488950D03*
X469900Y476250D03*
X469900Y463550D03*
X469900Y450850D03*
X469900Y438150D03*
X488950Y438150D03*
X488950Y476250D03*
X488950Y488950D03*
X501650Y488950D03*
X501650Y438150D03*
X511175Y400050D03*
X492125Y390525D03*
X469900Y396875D03*
X469900Y412750D03*
X469900Y425450D03*
X422275Y400050D03*
X422275Y412750D03*
X422275Y425450D03*
X422275Y438150D03*
X422275Y450850D03*
X422275Y463550D03*
X422275Y476250D03*
X527050Y412750D03*
X527050Y425450D03*
X527050Y438150D03*
X527050Y450850D03*
X527050Y463550D03*
X527050Y476250D03*
X527050Y488950D03*
X666750Y488950D03*
X666750Y476250D03*
X666750Y463550D03*
X666750Y450850D03*
X666750Y438150D03*
X666750Y425450D03*
X666750Y412750D03*
X666750Y396875D03*
X508000Y381000D03*
X660400Y377825D03*
X555625Y279400D03*
X492125Y279400D03*
X469900Y279400D03*
X444500Y279400D03*
X444500Y254000D03*
X469900Y254000D03*
X492125Y254000D03*
X492125Y200025D03*
X469900Y200025D03*
X444500Y200025D03*
X422275Y254000D03*
X422275Y279400D03*
X355600Y279400D03*
X355600Y254000D03*
X377825Y254000D03*
X377825Y146050D03*
X339725Y130175D03*
X381000Y82550D03*
X447675Y88900D03*
X469900Y180975D03*
X492125Y180975D03*
X444500Y180975D03*
X530225Y88900D03*
X676275Y152400D03*
X676275Y177800D03*
X676275Y203200D03*
X676275Y231775D03*
X676275Y127000D03*
X676275Y92075D03*
X717550Y79375D03*
X755650Y161925D03*
X755650Y136525D03*
X796925Y142875D03*
X793750Y76200D03*
X844550Y203200D03*
X844550Y234950D03*
X812800Y234950D03*
X812800Y260350D03*
X717550Y266700D03*
X676275Y250825D03*
X663575Y276225D03*
X682625Y276225D03*
X704850Y304800D03*
X762000Y314325D03*
X828675Y336550D03*
X806450Y285750D03*
X828675Y307975D03*
X850900Y381000D03*
X838200Y400050D03*
X787400Y390525D03*
X762000Y390525D03*
X736600Y396875D03*
X736600Y412750D03*
X736600Y425450D03*
X736600Y438150D03*
X736600Y450850D03*
X736600Y463550D03*
X708025Y479425D03*
X777875Y479425D03*
X796925Y485775D03*
X796925Y447675D03*
X781050Y425450D03*
X803275Y406400D03*
X854075Y498475D03*
X873125Y504825D03*
X873125Y476250D03*
X892175Y476250D03*
X923925Y511175D03*
X873125Y539750D03*
X923925Y619125D03*
X800100Y466725D03*
X736600Y654050D03*
X733425Y730250D03*
X847725Y733425D03*
X854075Y647700D03*
X755650Y650875D03*
X762000Y581025D03*
X733425Y581025D03*
X650875Y622300D03*
X682625Y622300D03*
X647700Y695325D03*
X657225Y733425D03*
X657225Y755650D03*
X765175Y755650D03*
X847725Y752475D03*
X561975Y755650D03*
X565150Y688975D03*
X565150Y647700D03*
X593725Y647700D03*
X517525Y609600D03*
X568325Y622300D03*
X590550Y622300D03*
X704850Y603250D03*
X711200Y508000D03*
X685800Y508000D03*
X685800Y476250D03*
X685800Y463550D03*
X685800Y450850D03*
X685800Y438150D03*
X688975Y425450D03*
X984250Y409575D03*
X984250Y165100D03*
X984250Y12700D03*
X835025Y12700D03*
X765175Y12700D03*
X873125Y647700D03*
X981075Y755650D03*
X984250Y638175D03*
X873125Y565150D03*
X854075Y546100D03*
X854075Y520700D03*
X984250Y288925D03*
X206375Y12700D03*
X127000Y34925D03*
X317500Y98425D03*
X212725Y184150D03*
X193675Y190500D03*
X63500Y177800D03*
X130175Y111125D03*
X95250Y92075D03*
X177800Y260350D03*
X206375Y266700D03*
X219075Y238125D03*
X180975Y238125D03*
X212725Y196850D03*
X193675Y215900D03*
X171450Y288925D03*
X187325Y301625D03*
X146050Y304800D03*
X95250Y292100D03*
X200025Y342900D03*
X244475Y320675D03*
X266700Y307975D03*
X304800Y279400D03*
X304800Y307975D03*
X330200Y307975D03*
X330200Y266700D03*
X311150Y234950D03*
X212725Y104775D03*
X339725Y241300D03*
X146050Y565150D03*
X104775Y565150D03*
X79375Y615950D03*
X79375Y650875D03*
X12700Y523875D03*
X209550Y647700D03*
X133350Y434975D03*
X279400Y457200D03*
X273050Y434975D03*
X260350Y425450D03*
X228600Y495300D03*
X609600Y231775D03*
X596900Y250825D03*
X596900Y282575D03*
X508000Y352425D03*
X406400Y352425D03*
X495300Y130175D03*
X479425Y114300D03*
X447675Y139700D03*
X320675Y130175D03*
X273050Y57150D03*
X193675Y104775D03*
X85725Y222250D03*
X98425Y260350D03*
X127000Y346075D03*
X885825Y260350D03*
X885825Y282575D03*
X885825Y317500D03*
X720725Y114300D03*
X742950Y63500D03*
X685800Y377825D03*
X873125Y520700D03*
X301625Y203200D03*
X320675Y203200D03*
X920750Y542925D03*
X847725Y288925D03*
X317500Y260350D03*
X762000Y400050D03*
X438150Y482600D03*
X666750Y254000D03*
X781050Y444500D03*
X812800Y133350D03*
X501650Y393700D03*
X495300Y495300D03*
X412750Y495300D03*
X688975Y396875D03*
M02*
