M48
;GenerationSoftware,Autodesk,EAGLE,9.6.0*%
;CreationDate,2025-11-01T19:34:54Z*%
FMAT,2
ICI,OFF
METRIC,TZ,000.000
T11C0.305
T10C0.350
T9C0.800
T8C0.813
T7C0.900
T6C1.016
T5C1.200
T4C1.600
T3C1.800
T2C3.200
T1C3.302
%
G90
M71
T1
X93980Y12900
X93980Y37900
T2
X5500Y71500
X5500Y5500
X94500Y71500
X94500Y5500
T3
X3810Y13100
X3810Y25000
T4
X9330Y47270
X12330Y52070
X6530Y52070
T5
X3185Y43690
X3185Y35050
X6985Y43690
X6985Y35050
T6
X63500Y63500
X94297Y66040
X94297Y63500
X31750Y33020
X34290Y33020
X36830Y33020
X39370Y33020
X41910Y33020
X44450Y33020
X46990Y33020
X49530Y33020
X52070Y33020
X54610Y33020
X57150Y33020
X59690Y33020
X62230Y33020
X2540Y60980
X2540Y63480
X45700Y71120
X43200Y71120
X54590Y71120
X52090Y71120
X74890Y71120
X72390Y71120
X94297Y60960
X86320Y71120
X83820Y71120
X81320Y71120
X63480Y71120
X60980Y71120
X94297Y55880
X94297Y58420
X64770Y33020
X67310Y33020
X69850Y33020
X72390Y33020
X74930Y33020
X77470Y33020
X80010Y33020
X86360Y67310
X83820Y67310
X81280Y67310
X52070Y63500
X54610Y63500
X94297Y53340
X31750Y55880
X34290Y55880
X36830Y55880
X39370Y55880
X41910Y55880
X44450Y55880
X46990Y55880
X49530Y55880
X52070Y55880
X54610Y55880
X57150Y55880
X59690Y55880
X62230Y55880
X64770Y55880
X67310Y55880
X69850Y55880
X72390Y55880
X74930Y55880
X77470Y55880
X80010Y55880
X86360Y27305
X86360Y24765
X45720Y67310
X43180Y67310
X54610Y67310
X52070Y67310
X63500Y67310
X60960Y67310
X24130Y43180
X21590Y43180
X24130Y45720
X21590Y45720
X24130Y48260
X21590Y48260
X24130Y50800
X21590Y50800
X24130Y53340
X21590Y53340
X24130Y55880
X21590Y55880
X24130Y58420
X69890Y71120
X74930Y67310
X72390Y67310
X69850Y67310
X26670Y50800
X26670Y48260
X34849Y7341
X34849Y2819
X41351Y7341
X41351Y2819
X57709Y7341
X57709Y2819
X64211Y7341
X64211Y2819
X46279Y7341
X46279Y2819
X52781Y7341
X21590Y58420
X69850Y63500
X72390Y63500
X92560Y30940
X92560Y28170
X92560Y25400
X92560Y22630
X92560Y19860
X95400Y29550
X95400Y26780
X95400Y24020
X95400Y21250
X60960Y63500
X52781Y2819
T7
X2540Y30480
X7620Y30480
X10160Y30480
X12700Y30480
T8
X23812Y30162
X62230Y11430
X62230Y16510
X76200Y27940
X71120Y27940
X62230Y19050
X62230Y24130
X52070Y59055
X57150Y59055
X25400Y65405
X27940Y65405
X31750Y36830
X34290Y36830
X36830Y36830
X39370Y36830
X41910Y36830
X44450Y36830
X46990Y36830
X49530Y36830
X54610Y36830
X57150Y36830
X59690Y36830
X62230Y36830
X64770Y36830
X67310Y36830
X69850Y36830
X72390Y36830
X74930Y36830
X77470Y36830
X80010Y36830
X80010Y52070
X77470Y52070
X74930Y52070
X72390Y52070
X69850Y52070
X67310Y52070
X64770Y52070
X62230Y52070
X59690Y52070
X57150Y52070
X17780Y19050
X17780Y16510
X25400Y19050
X25400Y16510
X39370Y19050
X29210Y19050
X21590Y70485
X31750Y70485
X39370Y21590
X29210Y21590
X26670Y36830
X24130Y34290
X10160Y22860
X20320Y22860
X82550Y24765
X82550Y14605
X30480Y8255
X20320Y8255
X17780Y5715
X12700Y5715
X15240Y8255
X54610Y52070
X52070Y52070
X49530Y52070
X46990Y52070
X44450Y52070
X41910Y52070
X39370Y52070
X36830Y52070
X34290Y52070
X31750Y52070
X13970Y73660
X16510Y73660
X19050Y73660
X21590Y73660
X24130Y73660
X26670Y73660
X29210Y73660
X31750Y73660
X43180Y11430
X69850Y24130
X69850Y21590
X69850Y19050
X69850Y16510
X69850Y13970
X69850Y11430
X69850Y8890
X69850Y6350
X77470Y6350
X77470Y8890
X77470Y11430
X77470Y13970
X77470Y16510
X77470Y19050
X77470Y21590
X77470Y24130
X34290Y73660
X36830Y73660
X21590Y36830
X52070Y36830
X57150Y29210
X52070Y29210
X66040Y19050
X66040Y24130
X66040Y11430
X66040Y16510
X23812Y27622
X33020Y11430
T9
X16510Y30480
X23400Y3810
X27400Y3810
X2060Y21050
X2060Y17050
X5560Y19050
X63500Y29210
X66040Y29210
X16510Y35560
X60960Y29210
T10
X27305Y5715
X19368Y10478
X8573Y22225
X9843Y26035
X12700Y34608
X88582Y26035
X88582Y28257
X88582Y31750
X72073Y11430
X74295Y6350
X68580Y37783
X87313Y52070
X30162Y20320
X49212Y39053
X92075Y54292
X84773Y28892
X66675Y25400
X81280Y13335
X49530Y49530
X41275Y49530
X14287Y41275
X14287Y40005
X14287Y38735
X14287Y37465
X17145Y41593
X20638Y71755
X25400Y71755
X25717Y62230
X21907Y61912
X19050Y52070
X26035Y55880
X29845Y55880
X26035Y59055
X26035Y57785
X23495Y60325
X32385Y61912
X29845Y64770
X30480Y71755
X27940Y71755
X33655Y71438
X36195Y71438
X34925Y66040
X40958Y66040
X41593Y69850
X38735Y74295
X44132Y73025
X45402Y75565
X47625Y66040
X40640Y63500
X50482Y65087
X46990Y60007
X40005Y60007
X48895Y60960
X36513Y58737
X33973Y58737
X38735Y58737
X34925Y48260
X34925Y45402
X34925Y43815
X34925Y42545
X34925Y41275
X34925Y40005
X44450Y41275
X44450Y40005
X44450Y42545
X44450Y43815
X44450Y45085
X44450Y46355
X44450Y47625
X44450Y48895
X37465Y48260
X39688Y49847
X43180Y50165
X32067Y20320
X45720Y50800
X48260Y50800
X46990Y48895
X46990Y47625
X46990Y46355
X46990Y45085
X46990Y43815
X48895Y43815
X48895Y47625
X48895Y48895
X50165Y48895
X50165Y43815
X51117Y40005
X46990Y39688
X46990Y41275
X46990Y42545
X42228Y40005
X42228Y41275
X42228Y42545
X42228Y43815
X42228Y45085
X42228Y46355
X42228Y47625
X52705Y41275
X52705Y42545
X52705Y43815
X52705Y45085
X52705Y46355
X52705Y47625
X52705Y48895
X66675Y48895
X66675Y47625
X66675Y46355
X66675Y45085
X66675Y43815
X66675Y42545
X66675Y41275
X66675Y39688
X50800Y38100
X66040Y37783
X55562Y27940
X49212Y27940
X46990Y27940
X44450Y27940
X44450Y25400
X46990Y25400
X49212Y25400
X49212Y20003
X46990Y20003
X44450Y20003
X42228Y25400
X42228Y27940
X35560Y27940
X35560Y25400
X37783Y25400
X37783Y14605
X33973Y13017
X38100Y8255
X44767Y8890
X46990Y18098
X49212Y18098
X44450Y18098
X53022Y8890
X67628Y15240
X67628Y17780
X67628Y20320
X67628Y23177
X67628Y12700
X67628Y9208
X71755Y7937
X75565Y16192
X75565Y13652
X79693Y14287
X79375Y7620
X84455Y20320
X84455Y23495
X81280Y23495
X81280Y26035
X71755Y26670
X67628Y25082
X66358Y27622
X68263Y27622
X70485Y30480
X76200Y31432
X82868Y33655
X80645Y28575
X82868Y30797
X85090Y38100
X83820Y40005
X78740Y39053
X76200Y39053
X73660Y39688
X73660Y41275
X73660Y42545
X73660Y43815
X73660Y45085
X73660Y46355
X70803Y47942
X77788Y47942
X79693Y48577
X79693Y44767
X78105Y42545
X80328Y40640
X85408Y49847
X87313Y50482
X87313Y47625
X89217Y47625
X92392Y51117
X87313Y53975
X92392Y61912
X80010Y46672
X73660Y65405
X73343Y73025
X84773Y73343
X85408Y64770
X75565Y65087
X76200Y58102
X73343Y58102
X65087Y62230
X68263Y62230
X64770Y69533
X65723Y73343
X65723Y75565
X76518Y75565
X84773Y75248
X56197Y75565
X56515Y68898
X56515Y64770
X59372Y64770
X51752Y60960
X56832Y62230
X59055Y62230
X70485Y60325
X98425Y63817
X71120Y50800
X68580Y50800
X68580Y47625
X68580Y46355
X68580Y45085
X68580Y43815
X68898Y42545
X98425Y40958
X98425Y16510
X98425Y1270
X83503Y1270
X76518Y1270
X87313Y64770
X98107Y75565
X87313Y56515
X85408Y54610
X85408Y52070
X98425Y28892
X20638Y1270
X12700Y3492
X31750Y9843
X21273Y18415
X19368Y19050
X6350Y17780
X13017Y11112
X9525Y9208
X17780Y26035
X20638Y26670
X21907Y23812
X18098Y23812
X21273Y19685
X19368Y21590
X17145Y28892
X18733Y30162
X14605Y30480
X9525Y29210
X20003Y34290
X24447Y32067
X26670Y30797
X30480Y27940
X30480Y30797
X33020Y30797
X33020Y26670
X31115Y23495
X21273Y10478
X33973Y24130
X14605Y56515
X10478Y56515
X7937Y61595
X7937Y65087
X1270Y52387
X20955Y64770
X13335Y43498
X27940Y45720
X27305Y43498
X26035Y42545
X22860Y49530
X60960Y23177
X59690Y25082
X59690Y28257
X50800Y35243
X40640Y35243
X49530Y13017
X47942Y11430
X44767Y13970
X32067Y13017
T11
X50165Y39370
X43815Y48260
X31750Y26035
X68898Y39688
X78105Y44450
X76200Y40005
M30